<?xml version="1.0" encoding="UTF-8"?><svg xmlns="http://www.w3.org/2000/svg" xmlns:xlink="http://www.w3.org/1999/xlink" width="215pt" height="113pt" viewBox="0 0 215 113"><g transform="translate(51.6504, 55.6504)" style="fill:#161413; fill-rule:nonzero; stroke:none; stroke-width:1.3; stroke-linecap:butt; stroke-linejoin:miter; stroke-dasharray:none;"><path d="M1.2998 30.4492C1.2998 30.4492 0.6494 30.7998 0.6494 30.7998C0.6494 30.7998 0 30.4492 0 30.4492C0 30.4492 0 0.3496 0 0.3496C0 0.3496 0.6494 0 0.6494 0C0.6494 0 1.2998 0.3496 1.2998 0.3496C1.2998 0.3496 1.2998 30.4492 1.2998 30.4492Z"/></g><g transform="translate(57.2002, 58.8496)" style="fill:#161413; fill-rule:nonzero; stroke:none; stroke-width:1.3; stroke-linecap:butt; stroke-linejoin:miter; stroke-dasharray:none;"><path d="M1.2998 24.4004C1.2998 24.4004 0 24.4004 0 24.4004C0 24.4004 0 0 0 0C0 0 1.2998 0 1.2998 0C1.2998 0 1.2998 24.4004 1.2998 24.4004Z"/></g><g transform="translate(52.2998, 86.0996)" style="fill:#161413; fill-rule:nonzero; stroke:none; stroke-width:1.3; stroke-linecap:butt; stroke-linejoin:miter; stroke-dasharray:none;"><path d="M26.7002 15.0504C26.7002 15.0504 26.7002 16.5004 26.7002 16.5004C26.7002 16.5004 0 1.1006 0 1.1006C0 1.1006 0 0.3506 0 0.3506C0 0.3506 0.6504 0 0.6504 0C0.6504 0 26.7002 15.0504 26.7002 15.0504Z"/></g><g transform="translate(79, 86.0996)" style="fill:#161413; fill-rule:nonzero; stroke:none; stroke-width:1.3; stroke-linecap:butt; stroke-linejoin:miter; stroke-dasharray:none;"><path d="M26.05 0C26.05 0 27.3 0.75 27.3 0.75C27.3 0.75 0 16.5004 0 16.5004C0 16.5004 0 15.0504 0 15.0504C0 15.0504 26.05 0 26.05 0Z"/></g><g transform="translate(78.6504, 82.7002)" style="fill:#161413; fill-rule:nonzero; stroke:none; stroke-width:1.3; stroke-linecap:butt; stroke-linejoin:miter; stroke-dasharray:none;"><path d="M21.1494 0C21.1494 0 21.7996 1.0996 21.7996 1.0996C21.7996 1.0996 0.6494 13.2998 0.6494 13.2998C0.6494 13.2998 0 12.2002 0 12.2002C0 12.2002 21.1494 0 21.1494 0Z"/></g><g transform="translate(105.05, 55.6504)" style="fill:#161413; fill-rule:nonzero; stroke:none; stroke-width:1.3; stroke-linecap:butt; stroke-linejoin:miter; stroke-dasharray:none;"><path d="M0 0.3496C0 0.3496 0.6 0 0.6 0C0.6 0 1.25 0.3496 1.25 0.3496C1.25 0.3496 1.25 31.1992 1.25 31.1992C1.25 31.1992 0 30.4492 0 30.4492C0 30.4492 0 0.3496 0 0.3496Z"/></g><g transform="translate(79, 39.5)" style="fill:#161413; fill-rule:nonzero; stroke:none; stroke-width:1.3; stroke-linecap:butt; stroke-linejoin:miter; stroke-dasharray:none;"><path d="M0 1.5C0 1.5 0 0 0 0C0 0 26.65 15.4004 26.65 15.4004C26.65 15.4004 26.65 16.1504 26.65 16.1504C26.65 16.1504 26.05 16.5 26.05 16.5C26.05 16.5 0 1.5 0 1.5Z"/></g><g transform="translate(78.6504, 46.0996)" style="fill:#161413; fill-rule:nonzero; stroke:none; stroke-width:1.3; stroke-linecap:butt; stroke-linejoin:miter; stroke-dasharray:none;"><path d="M0 1.1006C0 1.1006 0.6494 0 0.6494 0C0.6494 0 21.7996 12.2002 21.7996 12.2002C21.7996 12.2002 21.1494 13.3008 21.1494 13.3008C21.1494 13.3008 0 1.1006 0 1.1006Z"/></g><g transform="translate(52.2998, 39.5)" style="fill:#161413; fill-rule:nonzero; stroke:none; stroke-width:1.3; stroke-linecap:butt; stroke-linejoin:miter; stroke-dasharray:none;"><path d="M0.6504 16.5C0.6504 16.5 0 16.1504 0 16.1504C0 16.1504 0 15.4004 0 15.4004C0 15.4004 26.7002 0 26.7002 0C26.7002 0 26.7002 1.5 26.7002 1.5C26.7002 1.5 0.6504 16.5 0.6504 16.5Z"/></g><g transform="translate(105.65, 39.9004)" style="fill:#161413; fill-rule:nonzero; stroke:none; stroke-width:1.3; stroke-linecap:butt; stroke-linejoin:miter; stroke-dasharray:none;"><path d="M26.05 0C26.05 0 26.65 0.3496 26.65 0.3496C26.65 0.3496 26.65 1.0996 26.65 1.0996C26.65 1.0996 0.65 16.0996 0.65 16.0996C0.65 16.0996 0 15.75 0 15.75C0 15.75 0 15 0 15C0 15 26.05 0 26.05 0Z"/></g><g transform="translate(132.3, 39.9004)" style="fill:#161413; fill-rule:nonzero; stroke:none; stroke-width:1.3; stroke-linecap:butt; stroke-linejoin:miter; stroke-dasharray:none;"><path d="M26.65 15C26.65 15 26.65 16.5 26.65 16.5C26.65 16.5 0 1.0996 0 1.0996C0 1.0996 0 0.3496 0 0.3496C0 0.3496 0.65 0 0.65 0C0.65 0 26.65 15 26.65 15Z"/></g><g transform="translate(179.773, 15.4209)" style="fill:#161413; fill-rule:evenodd; stroke:none; stroke-width:1.3; stroke-linecap:butt; stroke-linejoin:miter; stroke-dasharray:none;"><path d="M10.001 8.4844C10.001 8.4844 10.001 15.5791 10.001 15.5791C10.001 15.5791 11.99 15.5791 11.99 15.5791C11.99 15.5791 11.99 0 11.99 0C11.99 0 10.001 0 10.001 0C10.001 0 10.001 6.7324 10.001 6.7324C10.001 6.7324 1.988 6.7324 1.988 6.7324C1.988 6.7324 1.988 0 1.988 0C1.988 0 0 0 0 0C0 0 0 15.5791 0 15.5791C0 15.5791 2.009 15.5791 2.009 15.5791C2.009 15.5791 2.009 8.4844 2.009 8.4844C2.009 8.4844 10.001 8.4844 10.001 8.4844Z"/></g><g transform="translate(179.624, 33.1709)" style="fill:#161413; fill-rule:evenodd; stroke:none; stroke-width:1.3; stroke-linecap:butt; stroke-linejoin:miter; stroke-dasharray:none;"><path d="M12.181 0C12.181 0 10.301 0 10.301 0C10.301 0 10.301 12.7373 10.301 12.7373C10.301 12.7373 2.158 0 2.158 0C2.158 0 0 0 0 0C0 0 0 15.5791 0 15.5791C0 15.5791 1.881 15.5791 1.881 15.5791C1.881 15.5791 1.881 2.9492 1.881 2.9492C1.881 2.9492 9.938 15.5791 9.938 15.5791C9.938 15.5791 12.181 15.5791 12.181 15.5791C12.181 15.5791 12.181 0 12.181 0Z"/></g><g transform="translate(158.95, 46.0996)" style="fill:#161413; fill-rule:nonzero; stroke:none; stroke-width:1.3; stroke-linecap:butt; stroke-linejoin:miter; stroke-dasharray:none;"><path d="M15.3 0C15.3 0 15.95 1.1006 15.95 1.1006C15.95 1.1006 0 10.3008 0 10.3008C0 10.3008 0 8.8008 0 8.8008C0 8.8008 15.3 0 15.3 0Z"/></g><g transform="translate(196.25, 46.0498)" style="fill:#161413; fill-rule:nonzero; stroke:none; stroke-width:1.3; stroke-linecap:butt; stroke-linejoin:miter; stroke-dasharray:none;"><path d="M16.35 9.0498C16.35 9.0498 15.7 10.1504 15.7 10.1504C15.7 10.1504 0 1.1006 0 1.1006C0 1.1006 0.65 0 0.65 0C0.65 0 16.35 9.0498 16.35 9.0498Z"/></g><g transform="translate(124.813, 2.16504)" style="fill:#161413; fill-rule:evenodd; stroke:none; stroke-width:1.3; stroke-linecap:butt; stroke-linejoin:miter; stroke-dasharray:none;"><path d="M7.5 0C3.034 0 0 3.29101 0 8.16306C0 13.0352 3.034 16.3262 7.521 16.3262C9.402 16.3262 11.09 15.7491 12.351 14.6807C14.04 13.2491 15.043 10.834 15.043 8.29106C15.043 3.26953 12.073 0 7.5 0ZM7.5 1.75195C10.876 1.75195 13.056 4.31641 13.056 8.24906C13.056 12.0098 10.812 14.5743 7.521 14.5743C4.208 14.5743 1.987 12.0098 1.987 8.16306C1.987 4.31641 4.208 1.75195 7.5 1.75195Z"/></g><g transform="translate(142.523, 2.4209)" style="fill:#161413; fill-rule:evenodd; stroke:none; stroke-width:1.3; stroke-linecap:butt; stroke-linejoin:miter; stroke-dasharray:none;"><path d="M10.001 8.4844C10.001 8.4844 10.001 15.5791 10.001 15.5791C10.001 15.5791 11.99 15.5791 11.99 15.5791C11.99 15.5791 11.99 0 11.99 0C11.99 0 10.001 0 10.001 0C10.001 0 10.001 6.73242 10.001 6.73242C10.001 6.73242 1.988 6.73242 1.988 6.73242C1.988 6.73242 1.988 0 1.988 0C1.988 0 0 0 0 0C0 0 0 15.5791 0 15.5791C0 15.5791 2.009 15.5791 2.009 15.5791C2.009 15.5791 2.009 8.4844 2.009 8.4844C2.009 8.4844 10.001 8.4844 10.001 8.4844Z"/></g><g transform="translate(131.7, 21.5498)" style="fill:#161413; fill-rule:nonzero; stroke:none; stroke-width:1.3; stroke-linecap:butt; stroke-linejoin:miter; stroke-dasharray:none;"><path d="M0 0C0 0 1.25 0 1.25 0C1.25 0 1.25 18.3506 1.25 18.3506C1.25 18.3506 0.6 18.7002 0.6 18.7002C0.6 18.7002 0 18.3506 0 18.3506C0 18.3506 0 0 0 0Z"/></g><g transform="translate(3.77344, 33.1709)" style="fill:#161413; fill-rule:evenodd; stroke:none; stroke-width:1.3; stroke-linecap:butt; stroke-linejoin:miter; stroke-dasharray:none;"><path d="M10.001 8.4844C10.001 8.4844 10.001 15.5791 10.001 15.5791C10.001 15.5791 11.9893 15.5791 11.9893 15.5791C11.9893 15.5791 11.9893 0 11.9893 0C11.9893 0 10.001 0 10.001 0C10.001 0 10.001 6.7324 10.001 6.7324C10.001 6.7324 1.9873 6.7324 1.9873 6.7324C1.9873 6.7324 1.9873 0 1.9873 0C1.9873 0 0 0 0 0C0 0 0 15.5791 0 15.5791C0 15.5791 2.00879 15.5791 2.00879 15.5791C2.00879 15.5791 2.00879 8.4844 2.00879 8.4844C2.00879 8.4844 10.001 8.4844 10.001 8.4844Z"/></g><g transform="translate(18.3125, 32.915)" style="fill:#161413; fill-rule:evenodd; stroke:none; stroke-width:1.3; stroke-linecap:butt; stroke-linejoin:miter; stroke-dasharray:none;"><path d="M7.5 0C3.0342 0 0 3.2911 0 8.1631C0 13.0352 3.0342 16.3262 7.5215 16.3262C9.4023 16.3262 11.0908 15.7491 12.3516 14.6807C14.04 13.2491 15.0439 10.834 15.0439 8.2911C15.0439 3.2696 12.0732 0 7.5 0ZM7.5 1.752C10.877 1.752 13.0566 4.3164 13.0566 8.2491C13.0566 12.0098 10.8125 14.5743 7.5215 14.5743C4.209 14.5743 1.9873 12.0098 1.9873 8.1631C1.9873 4.3164 4.209 1.752 7.5 1.752Z"/></g><g transform="translate(35.3496, 45.5)" style="fill:#161413; fill-rule:nonzero; stroke:none; stroke-width:1.3; stroke-linecap:butt; stroke-linejoin:miter; stroke-dasharray:none;"><path d="M0 1.0996C0 1.0996 0.6504 0 0.6504 0C0.6504 0 16.9502 9.4004 16.9502 9.4004C16.9502 9.4004 16.9502 10.1504 16.9502 10.1504C16.9502 10.1504 16.3008 10.5 16.3008 10.5C16.3008 10.5 0 1.0996 0 1.0996Z"/></g><g transform="translate(3.77344, 94.6709)" style="fill:#161413; fill-rule:evenodd; stroke:none; stroke-width:1.3; stroke-linecap:butt; stroke-linejoin:miter; stroke-dasharray:none;"><path d="M10.001 8.4841C10.001 8.4841 10.001 15.5791 10.001 15.5791C10.001 15.5791 11.9893 15.5791 11.9893 15.5791C11.9893 15.5791 11.9893 0 11.9893 0C11.9893 0 10.001 0 10.001 0C10.001 0 10.001 6.7321 10.001 6.7321C10.001 6.7321 1.9873 6.7321 1.9873 6.7321C1.9873 6.7321 1.9873 0 1.9873 0C1.9873 0 0 0 0 0C0 0 0 15.5791 0 15.5791C0 15.5791 2.00879 15.5791 2.00879 15.5791C2.00879 15.5791 2.00879 8.4841 2.00879 8.4841C2.00879 8.4841 10.001 8.4841 10.001 8.4841Z"/></g><g transform="translate(18.3125, 94.415)" style="fill:#161413; fill-rule:evenodd; stroke:none; stroke-width:1.3; stroke-linecap:butt; stroke-linejoin:miter; stroke-dasharray:none;"><path d="M7.5 0C3.0342 0 0 3.2911 0 8.163C0 13.035 3.0342 16.326 7.5215 16.326C9.4023 16.326 11.0908 15.749 12.3516 14.681C14.04 13.249 15.0439 10.834 15.0439 8.291C15.0439 3.2696 12.0732 0 7.5 0ZM7.5 1.752C10.877 1.752 13.0566 4.3164 13.0566 8.249C13.0566 12.01 10.8125 14.574 7.5215 14.574C4.209 14.574 1.9873 12.01 1.9873 8.163C1.9873 4.3164 4.209 1.752 7.5 1.752Z"/></g><g transform="translate(34.6504, 86.0996)" style="fill:#161413; fill-rule:nonzero; stroke:none; stroke-width:1.3; stroke-linecap:butt; stroke-linejoin:miter; stroke-dasharray:none;"><path d="M0.6494 10.9004C0.6494 10.9004 0 9.8008 0 9.8008C0 9.8008 17 0 17 0C17 0 17.6494 0.3506 17.6494 0.3506C17.6494 0.3506 17.6494 1.1006 17.6494 1.1006C17.6494 1.1006 0.6494 10.9004 0.6494 10.9004Z"/></g></svg>