<?xml version="1.0" encoding="UTF-8"?>
<svg viewBox="0 0 704.74255 704.74139" xmlns="http://www.w3.org/2000/svg">
 <g transform="matrix(1.1878 0 0 1.1878 -10.482 -428.51)">
  <path d="m8.95 657.42c0-163.77 132.76-296.53 296.53-296.53s296.53 132.76 296.53 296.53-132.76 296.53-296.53 296.53-296.53-132.76-296.53-296.53z"/>
 </g>
 <g transform="matrix(1.1878 0 0 1.1878 -10.482 -428.51)" fill="none" stroke="#fff" stroke-width=".25">
  <path d="m8.95 657.42c0-163.77 132.76-296.53 296.53-296.53s296.53 132.76 296.53 296.53-132.76 296.53-296.53 296.53-296.53-132.76-296.53-296.53z"/>
 </g>
 <g transform="matrix(1.1878 0 0 1.1878 -10.482 -428.51)" fill="#fafaac">
  <path d="m214.07 562.57 74.523 77.287c-1.82 1.747-3.398 3.87-4.6 6.107l-94.786-50.506c6.538-12.245 14.954-23.336 24.863-32.888z"/>
 </g>
 <g transform="matrix(1.1878 0 0 1.1878 -10.482 -428.51)" fill="#ffe680">
  <path d="m116.96 556.96c10.594-19.843 24.112-37.957 40.172-53.44l48.782 50.592c-10.791 10.404-19.957 22.483-27.077 35.819l-61.877-32.971z" fill="#ffe680"/>
 </g>
 <g transform="matrix(1.1878 0 0 1.1878 -10.482 -428.51)" fill="#ffe680" stroke="#fff" stroke-width=".25">
  <path d="m214.07 562.57 74.523 77.287c-1.82 1.747-3.398 3.87-4.6 6.107l-94.786-50.506c6.538-12.245 14.954-23.336 24.863-32.888z" fill="#ffe680"/>
 </g>
 <g transform="matrix(1.1878 0 0 1.1878 -10.482 -428.51)" fill="none" stroke="#fff" stroke-width=".25">
  <path d="m116.96 556.96c10.594-19.843 24.112-37.957 40.172-53.44l48.782 50.592c-10.791 10.404-19.957 22.483-27.077 35.819l-61.877-32.971z"/>
 </g>
 <g transform="matrix(1.1878 0 0 1.1878 -10.482 -428.51)" fill="#ffe680">
  <path d="m187.03 715.11 96.569-47.042c1.128 2.316 2.584 4.415 4.354 6.249l-77.256 74.573c-9.552-9.896-17.569-21.284-23.667-33.78z" fill="#ffe680"/>
 </g>
 <g transform="matrix(1.1878 0 0 1.1878 -10.482 -428.51)" fill="#ffe680">
  <path d="m151.74 805.79c-15.495-16.052-28.5-34.524-38.392-54.793l63.117-30.747c6.641 13.61 15.373 26.014 25.777 36.792l-50.502 48.748z" fill="#ffe680"/>
 </g>
 <g transform="matrix(1.1878 0 0 1.1878 -10.482 -428.51)" fill="none" stroke="#fff" stroke-width=".25">
  <path d="m187.03 715.11 96.569-47.042c1.128 2.316 2.584 4.415 4.354 6.249l-77.256 74.573c-9.552-9.896-17.569-21.284-23.667-33.78z"/>
 </g>
 <g transform="matrix(1.1878 0 0 1.1878 -10.482 -428.51)" fill="none" stroke="#fff" stroke-width=".25">
  <path d="m151.74 805.79c-15.495-16.052-28.5-34.524-38.392-54.793l63.117-30.747c6.641 13.61 15.373 26.014 25.777 36.792l-50.502 48.748z"/>
 </g>
 <g transform="matrix(1.1878 0 0 1.1878 -10.482 -428.51)" fill="#ffe680">
  <path d="m242.68 528.39-30.675-63.066c19.734-9.634 41.324-16.31 63.929-19.446l9.699 69.434c-15.209 2.105-29.657 6.594-42.953 13.078z" fill="#ffe680"/>
 </g>
 <g transform="matrix(1.1878 0 0 1.1878 -10.482 -428.51)" fill="#ffe680">
  <path d="m302.13 633.44c-2.595 0.358-5.102 0.987-7.335 2.097l-46.98-96.588c12.208-5.953 25.474-10.075 39.439-12.008l14.876 106.5z" fill="#ffe680"/>
 </g>
 <g transform="matrix(1.1878 0 0 1.1878 -10.482 -428.51)" fill="none" stroke="#fff" stroke-width=".25">
  <path d="m242.68 528.39-30.675-63.066c19.734-9.634 41.324-16.31 63.929-19.446l9.699 69.434c-15.209 2.105-29.657 6.594-42.953 13.078z"/>
 </g>
 <g transform="matrix(1.1878 0 0 1.1878 -10.482 -428.51)" fill="none" stroke="#fff" stroke-width=".25">
  <path d="m302.13 633.44c-2.595 0.358-5.102 0.987-7.335 2.097l-46.98-96.588c12.208-5.953 25.474-10.075 39.439-12.008l14.876 106.5z"/>
 </g>
 <g transform="matrix(1.1878 0 0 1.1878 -10.482 -428.51)" fill="#ffe680">
  <path d="m367.46 541.15-50.472 94.806c-2.242-1.205-4.653-2.125-7.246-2.578l18.69-105.7c13.879 2.438 27.01 7.049 39.028 13.469z" fill="#ffe680"/>
 </g>
 <g transform="matrix(1.1878 0 0 1.1878 -10.482 -428.51)" fill="#ffe680">
  <path d="m342.7 446.99c22.488 3.95 43.786 11.448 63.263 21.843l-32.983 61.955c-13.089-6.991-27.389-12.012-42.504-14.667l12.224-69.131z" fill="#ffe680"/>
 </g>
 <g transform="matrix(1.1878 0 0 1.1878 -10.482 -428.51)" fill="none" stroke="#fff" stroke-width=".25">
  <path d="m367.46 541.15-50.472 94.806c-2.242-1.205-4.653-2.125-7.246-2.578l18.69-105.7c13.879 2.438 27.01 7.049 39.028 13.469z"/>
 </g>
 <g transform="matrix(1.1878 0 0 1.1878 -10.482 -428.51)" fill="none" stroke="#fff" stroke-width=".25">
  <path d="m342.7 446.99c22.488 3.95 43.786 11.448 63.263 21.843l-32.983 61.955c-13.089-6.991-27.389-12.012-42.504-14.667l12.224-69.131z"/>
 </g>
 <g transform="matrix(1.1878 0 0 1.1878 -10.482 -428.51)" fill="#ffe680">
  <path d="m423.95 599.76-96.582 47.002c-1.132-2.311-2.639-4.367-4.411-6.196l77.303-74.63c9.564 9.907 17.589 21.31 23.69 33.824z" fill="#ffe680"/>
 </g>
 <g transform="matrix(1.1878 0 0 1.1878 -10.482 -428.51)" fill="#ffe680">
  <path d="m497.8 563.82-63.288 30.8c-6.646-13.63-15.387-26.05-25.805-36.841l50.498-48.753c15.533 16.089 28.694 34.469 38.595 54.794z" fill="#ffe680"/>
 </g>
 <g transform="matrix(1.1878 0 0 1.1878 -10.482 -428.51)" fill="none" stroke="#fff" stroke-width=".25">
  <path d="m423.95 599.76-96.582 47.002c-1.132-2.311-2.639-4.367-4.411-6.196l77.303-74.63c9.564 9.907 17.589 21.31 23.69 33.824z"/>
 </g>
 <g transform="matrix(1.1878 0 0 1.1878 -10.482 -428.51)" fill="none" stroke="#fff" stroke-width=".25">
  <path d="m497.8 563.82-63.288 30.8c-6.646-13.63-15.387-26.05-25.805-36.841l50.498-48.753c15.533 16.089 28.694 34.469 38.595 54.794z"/>
 </g>
 <g transform="matrix(1.1878 0 0 1.1878 -10.482 -428.51)" fill="#ffe680">
  <path d="m435.208,680.393-105.807-18.738c.243-1.378.422-2.793.422-4.239 0-1.129-.175-2.267-.323-3.354l106.459-14.839c.822,5.947 1.246,12.02 1.246,18.193 0,7.837-.684,15.515-1.997,22.977z" fill="#ffe680"/>
 </g>
 <g transform="matrix(1.1878 0 0 1.1878 -10.482 -428.51)" fill="#ffe680">
  <path d="m517.12 627.91c1.332 9.644 2.02 19.494 2.02 29.505 0 12.712-1.11 25.165-3.238 37.267l-69.128-12.242c1.43-8.126 2.175-16.489 2.175-25.026 0-6.722-0.462-13.337-1.356-19.813l69.527-9.691z" fill="#ffe680"/>
 </g>
 <g transform="matrix(1.1878 0 0 1.1878 -10.482 -428.51)" fill="none" stroke="#fff" stroke-width=".25">
  <path d="m435.208,680.393-105.807-18.738c.243-1.378.422-2.793.422-4.239 0-1.129-.175-2.267-.323-3.354l106.459-14.839c.822,5.947 1.246,12.02 1.246,18.193 0,7.837-.684,15.515-1.997,22.977z"/>
 </g>
 <g transform="matrix(1.1878 0 0 1.1878 -10.482 -428.51)" fill="none" stroke="#fff" stroke-width=".25">
  <path d="m517.12 627.91c1.332 9.644 2.02 19.494 2.02 29.505 0 12.712-1.11 25.165-3.238 37.267l-69.128-12.242c1.43-8.126 2.175-16.489 2.175-25.026 0-6.722-0.462-13.337-1.356-19.813l69.527-9.691z"/>
 </g>
 <g transform="matrix(1.1878 0 0 1.1878 -10.482 -428.51)" fill="#fafaac">
  <path d="m396.89 752.26-74.543-77.295c1.844-1.771 3.386-3.842 4.601-6.117l94.809 50.519c-6.539 12.247-14.956 23.339-24.867 32.893z"/>
 </g>
 <g transform="matrix(1.1878 0 0 1.1878 -10.482 -428.51)" fill="#ffe680">
  <path d="m494.08 757.91c-10.601 19.854-24.287 37.803-40.352 53.294l-48.688-50.486c10.793-10.405 19.96-22.485 27.082-35.823l61.958 33.015z" fill="#ffe680"/>
 </g>
 <g transform="matrix(1.1878 0 0 1.1878 -10.482 -428.51)" fill="#ffe680" stroke="#fff" stroke-width=".25">
  <path d="m396.89 752.26-74.543-77.295c1.844-1.771 3.386-3.842 4.601-6.117l94.809 50.519c-6.539 12.247-14.956 23.339-24.867 32.893z" fill="#ffe680"/>
 </g>
 <g transform="matrix(1.1878 0 0 1.1878 -10.482 -428.51)" fill="none" stroke="#fff" stroke-width=".25">
  <path d="m494.08 757.91c-10.601 19.854-24.287 37.803-40.352 53.294l-48.688-50.486c10.793-10.405 19.96-22.485 27.082-35.823l61.958 33.015z"/>
 </g>
 <g transform="matrix(1.1878 0 0 1.1878 -10.482 -428.51)" fill="#ffe680">
  <path d="m368.27 786.45 30.763 63.216c-19.783 9.646-41.352 16.344-63.979 19.481l-9.725-69.625c15.205-2.105 29.648-6.592 42.941-13.072z" fill="#ffe680"/>
 </g>
 <g transform="matrix(1.1878 0 0 1.1878 -10.482 -428.51)" fill="#ffe680">
  <path d="m316.19 679.42 46.943 96.465c-12.205 5.95-25.466 10.07-39.426 12.002l-14.852-106.33c2.549-0.356 5.103-1.058 7.335-2.139z" fill="#ffe680"/>
 </g>
 <g transform="matrix(1.1878 0 0 1.1878 -10.482 -428.51)" fill="none" stroke="#fff" stroke-width=".25">
  <path d="m368.27 786.45 30.763 63.216c-19.783 9.646-41.352 16.344-63.979 19.481l-9.725-69.625c15.205-2.105 29.648-6.592 42.941-13.072z"/>
 </g>
 <g transform="matrix(1.1878 0 0 1.1878 -10.482 -428.51)" fill="none" stroke="#fff" stroke-width=".25">
  <path d="m316.19 679.42 46.943 96.465c-12.205 5.95-25.466 10.07-39.426 12.002l-14.852-106.33c2.549-0.356 5.103-1.058 7.335-2.139z"/>
 </g>
 <g transform="matrix(1.1878 0 0 1.1878 -10.482 -428.51)" fill="#ffe680">
  <path d="m280.43 798.7-12.238 69.17c-22.484-3.954-43.717-11.457-63.191-21.854l33.011-61.96c13.065 6.975 27.336 11.988 42.418 14.644z" fill="#ffe680"/>
 </g>
 <g transform="matrix(1.1878 0 0 1.1878 -10.482 -428.51)" fill="#fafaac">
  <path d="m301.18 681.38-18.712 105.76c-13.846-2.439-26.947-7.041-38.941-13.445l50.511-94.805c2.205 1.179 4.596 2.039 7.142 2.492z"/>
 </g>
 <g transform="matrix(1.1878 0 0 1.1878 -10.482 -428.51)" fill="none" stroke="#fff" stroke-width=".25">
  <path d="m280.43 798.7-12.238 69.17c-22.484-3.954-43.717-11.457-63.191-21.854l33.011-61.96c13.065 6.975 27.336 11.988 42.418 14.644z"/>
 </g>
 <g transform="matrix(1.1878 0 0 1.1878 -10.482 -428.51)" fill="#ffe680" stroke="#fff" stroke-width=".25">
  <path d="m301.18 681.38-18.712 105.76c-13.846-2.439-26.947-7.041-38.941-13.445l50.511-94.805c2.205 1.179 4.596 2.039 7.142 2.492z" fill="#ffe680"/>
 </g>
 <g transform="matrix(1.1878 0 0 1.1878 -10.482 -428.51)" fill="#ffe680">
  <path d="m163.38 677.3-69.446 9.66c-1.341-9.676-2.112-19.497-2.112-29.542 0-12.731 1.115-25.175 3.247-37.293l69.12 12.261c-1.43 8.128-2.176 16.493-2.176 25.031 0 6.747 0.466 13.384 1.367 19.883z" fill="#ffe680"/>
 </g>
 <g transform="matrix(1.1878 0 0 1.1878 -10.482 -428.51)" fill="#ffe680">
  <path d="m281.387,660.882-106.372,14.797c-.828-5.969-1.256-12.066-1.256-18.263 0-7.839.685-15.518 1.998-22.98l105.746,18.757c-.238,1.371-.361,2.782-.361,4.223 0,1.176.083,2.334.245,3.466z" fill="#ffe680"/>
 </g>
 <g transform="matrix(1.1878 0 0 1.1878 -10.482 -428.51)" fill="none" stroke="#fff" stroke-width=".25">
  <path d="m163.38 677.3-69.446 9.66c-1.341-9.676-2.112-19.497-2.112-29.542 0-12.731 1.115-25.175 3.247-37.293l69.12 12.261c-1.43 8.128-2.176 16.493-2.176 25.031 0 6.747 0.466 13.384 1.367 19.883z"/>
 </g>
 <g transform="matrix(1.1878 0 0 1.1878 -10.482 -428.51)" fill="none" stroke="#fff" stroke-width=".25">
  <path d="m281.387,660.882-106.372,14.797c-.828-5.969-1.256-12.066-1.256-18.263 0-7.839.685-15.518 1.998-22.98l105.746,18.757c-.238,1.371-.361,2.782-.361,4.223 0,1.176.083,2.334.245,3.466z"/>
 </g>
 <g transform="matrix(1.1878 0 0 1.1878 -10.482 -428.51)" fill="#d40000">
  <path d="m281.14 657.42c0-13.444 10.897-24.341 24.34-24.341s24.341 10.897 24.341 24.341-10.898 24.34-24.341 24.34-24.34-10.897-24.34-24.34z" fill="#d40000"/>
 </g>
 <g transform="matrix(1.1878 0 0 1.1878 -10.482 -428.51)" fill="none" stroke="#fff" stroke-width=".25">
  <path d="m281.14 657.42c0-13.444 10.897-24.341 24.34-24.341s24.341 10.897 24.341 24.341-10.898 24.34-24.341 24.34-24.34-10.897-24.34-24.34z"/>
 </g>
 <g transform="matrix(1.1878 0 0 1.1878 -10.482 -428.51)">
  <path d="m295.89 657.42c0-5.299 4.296-9.595 9.595-9.595s9.596 4.296 9.596 9.595-4.296 9.596-9.596 9.596-9.595-4.296-9.595-9.596z"/>
 </g>
 <g transform="matrix(1.1878 0 0 1.1878 -10.482 -428.51)" fill="none" stroke="#fff" stroke-width=".25">
  <path d="m295.89 657.42c0-5.299 4.296-9.595 9.595-9.595s9.596 4.296 9.596 9.595-4.296 9.596-9.596 9.596-9.595-4.296-9.595-9.596z"/>
 </g>
 <g transform="matrix(1.1878 0 0 1.1878 -10.482 -428.51)" fill="none" stroke="#78ff21" stroke-width=".25">
  <path d="m157.17 503.59c16.06-15.483 34.543-28.474 54.833-38.353"/>
 </g>
 <g transform="matrix(1.1878 0 0 1.1878 -10.482 -428.51)" fill="none" stroke="#78ff21" stroke-width=".25">
  <path d="m95.067 620.1c3.955-22.477 11.421-43.742 21.815-63.209"/>
 </g>
 <g transform="matrix(1.1878 0 0 1.1878 -10.482 -428.51)" fill="none" stroke="#78ff21" stroke-width=".25">
  <path d="m113.35 751c-9.663-19.804-16.355-41.323-19.495-63.978"/>
 </g>
 <g transform="matrix(1.1878 0 0 1.1878 -10.482 -428.51)" fill="none" stroke="#78ff21" stroke-width=".25">
  <path d="m405.94 468.8c19.828 10.582 37.79 24.198 53.268 40.229"/>
 </g>
 <g transform="matrix(1.1878 0 0 1.1878 -10.482 -428.51)" fill="none" stroke="#78ff21" stroke-width=".25">
  <path d="m275.86 445.79c9.681-1.343 19.571-2.037 29.623-2.037 12.695 0 25.132 1.107 37.218 3.23"/>
 </g>
 <g transform="matrix(1.1878 0 0 1.1878 -10.482 -428.51)" fill="#ff212c">
  <path d="m247.82 538.95c-12.482 6.087-23.858 14.088-33.747 23.621l-8.153-8.455c10.772-10.385 23.165-19.1 36.761-25.73l5.139 10.564z"/>
 </g>
 <g transform="matrix(1.1878 0 0 1.1878 -10.482 -428.51)" fill="#ff212c">
  <path d="m328.431,527.685c-7.453-1.31-15.121-1.993-22.949-1.993-6.183,0-12.267.427-18.224,1.251l-1.625-11.634c6.488-.898 13.114-1.362 19.849-1.362 8.526,0 16.878.744 24.994,2.17l-2.045,11.568z"/>
 </g>
 <g transform="matrix(1.1878 0 0 1.1878 -10.482 -428.51)" fill="#ff212c">
  <path d="m400.26 565.94c-9.532-9.874-20.592-18.262-32.801-24.784l5.521-10.37c13.298 7.104 25.347 16.241 35.73 26.996l-8.45 8.158z"/>
 </g>
 <g transform="matrix(1.1878 0 0 1.1878 -10.482 -428.51)" fill="#ff212c">
  <path d="m435.96 639.22c-1.93-13.973-6.052-27.246-12.008-39.461l10.564-5.141c6.487 13.304 10.976 27.761 13.079 42.981l-11.635 1.621z"/>
 </g>
 <g transform="matrix(1.1878 0 0 1.1878 -10.482 -428.51)" fill="#ff212c">
  <path d="m421.76 719.37c6.41-12.004 11.015-25.118 13.453-38.978l11.567 2.048c-2.655 15.097-7.671 29.38-14.652 42.454l-10.368-5.524z"/>
 </g>
 <g transform="matrix(1.1878 0 0 1.1878 -10.482 -428.51)" fill="#ff212c">
  <path d="m363.13 775.89c12.484-6.086 23.863-14.088 33.755-23.622l8.153 8.454c-10.774 10.386-23.169 19.102-36.768 25.732l-5.14-10.564z"/>
 </g>
 <g transform="matrix(1.1878 0 0 1.1878 -10.482 -428.51)" fill="#ff212c">
  <path d="m282.473,787.136c7.472,1.316 15.16,2.003 23.009,2.003 6.184,0 12.268-.427 18.225-1.251l1.625,11.634c-6.488.898-13.115,1.362-19.85,1.362-8.547,0-16.919-.748-25.056-2.181l2.047-11.567z"/>
 </g>
 <g transform="matrix(1.1878 0 0 1.1878 -10.482 -428.51)" fill="#ff212c">
  <path d="m210.7 748.89c9.54 9.884 20.612 18.279 32.834 24.804l-5.524 10.368c-13.311-7.106-25.37-16.25-35.761-27.015l8.451-8.157z"/>
 </g>
 <g transform="matrix(1.1878 0 0 1.1878 -10.482 -428.51)" fill="#ff212c">
  <path d="m175.02 675.68c1.937 13.962 6.061 27.224 12.016 39.428l-10.561 5.145c-6.488-13.296-10.981-27.744-13.089-42.954l11.634-1.619z"/>
 </g>
 <g transform="matrix(1.1878 0 0 1.1878 -10.482 -428.51)" fill="#ff212c">
  <path d="m164.19 632.38c2.656-15.094 7.671-29.375 14.652-42.448l10.367 5.524c-6.409 12.004-11.014 25.116-13.452 38.976l-11.567-2.052z"/>
 </g>
 <g transform="matrix(1.1878 0 0 1.1878 -10.482 -428.51)" fill="#d40000" stroke="#fff" stroke-width=".25">
  <path d="m247.82 538.95c-12.482 6.087-23.858 14.088-33.747 23.621l-8.153-8.455c10.772-10.385 23.165-19.1 36.761-25.73l5.139 10.564z" fill="#d40000"/>
 </g>
 <g transform="matrix(1.1878 0 0 1.1878 -10.482 -428.51)" fill="#d40000" stroke="#fff" stroke-width=".25">
  <path d="m328.431,527.685c-7.453-1.31-15.121-1.993-22.949-1.993-6.183,0-12.267.427-18.224,1.251l-1.625-11.634c6.488-.898 13.114-1.362 19.849-1.362 8.526,0 16.878.744 24.994,2.17l-2.045,11.568z" fill="#d40000"/>
 </g>
 <g transform="matrix(1.1878 0 0 1.1878 -10.482 -428.51)" fill="#d40000" stroke="#fff" stroke-width=".25">
  <path d="m400.26 565.94c-9.532-9.874-20.592-18.262-32.801-24.784l5.521-10.37c13.298 7.104 25.347 16.241 35.73 26.996l-8.45 8.158z" fill="#d40000"/>
 </g>
 <g transform="matrix(1.1878 0 0 1.1878 -10.482 -428.51)" fill="#d40000" stroke="#fff" stroke-width=".25">
  <path d="m435.96 639.22c-1.93-13.973-6.052-27.246-12.008-39.461l10.564-5.141c6.487 13.304 10.976 27.761 13.079 42.981l-11.635 1.621z" fill="#d40000"/>
 </g>
 <g transform="matrix(1.1878 0 0 1.1878 -10.482 -428.51)" fill="#d40000" stroke="#fff" stroke-width=".25">
  <path d="m421.76 719.37c6.41-12.004 11.015-25.118 13.453-38.978l11.567 2.048c-2.655 15.097-7.671 29.38-14.652 42.454l-10.368-5.524z" fill="#d40000"/>
 </g>
 <g transform="matrix(1.1878 0 0 1.1878 -10.482 -428.51)" fill="#d40000" stroke="#fff" stroke-width=".25">
  <path d="m363.13 775.89c12.484-6.086 23.863-14.088 33.755-23.622l8.153 8.454c-10.774 10.386-23.169 19.102-36.768 25.732l-5.14-10.564z" fill="#d40000"/>
 </g>
 <g transform="matrix(1.1878 0 0 1.1878 -10.482 -428.51)" fill="#d40000" stroke="#fff" stroke-width=".25">
  <path d="m282.473,787.136c7.472,1.316 15.16,2.003 23.009,2.003 6.184,0 12.268-.427 18.225-1.251l1.625,11.634c-6.488.898-13.115,1.362-19.85,1.362-8.547,0-16.919-.748-25.056-2.181l2.047-11.567z" fill="#d40000"/>
 </g>
 <g transform="matrix(1.1878 0 0 1.1878 -10.482 -428.51)" fill="#d40000" stroke="#fff" stroke-width=".25">
  <path d="m210.7 748.89c9.54 9.884 20.612 18.279 32.834 24.804l-5.524 10.368c-13.311-7.106-25.37-16.25-35.761-27.015l8.451-8.157z" fill="#d40000"/>
 </g>
 <g transform="matrix(1.1878 0 0 1.1878 -10.482 -428.51)" fill="#d40000" stroke="#fff" stroke-width=".25">
  <path d="m175.02 675.68c1.937 13.962 6.061 27.224 12.016 39.428l-10.561 5.145c-6.488-13.296-10.981-27.744-13.089-42.954l11.634-1.619z" fill="#d40000"/>
 </g>
 <g transform="matrix(1.1878 0 0 1.1878 -10.482 -428.51)" fill="#d40000" stroke="#fff" stroke-width=".25">
  <path d="m164.19 632.38c2.656-15.094 7.671-29.375 14.652-42.448l10.367 5.524c-6.409 12.004-11.014 25.116-13.452 38.976l-11.567-2.052z" fill="#d40000"/>
 </g>
 <g transform="matrix(1.1878 0 0 1.1878 -10.482 -428.51)" fill="#33f105">
  <path d="m247.82 538.95-5.139-10.564c13.296-6.484 27.744-10.973 42.953-13.078l1.625 11.634c-13.965 1.933-27.231 6.055-39.439 12.008z"/>
 </g>
 <g transform="matrix(1.1878 0 0 1.1878 -10.482 -428.51)" fill="#0a0" stroke="#fff" stroke-width=".25">
  <path d="m247.82 538.95-5.139-10.564c13.296-6.484 27.744-10.973 42.953-13.078l1.625 11.634c-13.965 1.933-27.231 6.055-39.439 12.008z" fill="#0a0"/>
 </g>
 <g transform="matrix(1.1878 0 0 1.1878 -10.482 -428.51)" fill="#33f105">
  <path d="m372.98 530.78-5.521 10.37c-12.018-6.42-25.149-11.031-39.028-13.469l2.045-11.568c15.115 2.655 29.415 7.676 42.504 14.667z"/>
 </g>
 <g transform="matrix(1.1878 0 0 1.1878 -10.482 -428.51)" fill="#0a0" stroke="#fff" stroke-width=".25">
  <path d="m372.98 530.78-5.521 10.37c-12.018-6.42-25.149-11.031-39.028-13.469l2.045-11.568c15.115 2.655 29.415 7.676 42.504 14.667z" fill="#0a0"/>
 </g>
 <g transform="matrix(1.1878 0 0 1.1878 -10.482 -428.51)" fill="#33f105">
  <path d="m434.52 594.62-10.564 5.141c-6.101-12.514-14.126-23.917-23.691-33.824l8.45-8.158c10.418 10.791 19.159 23.211 25.805 36.841z"/>
 </g>
 <g transform="matrix(1.1878 0 0 1.1878 -10.482 -428.51)" fill="#0a0" stroke="#fff" stroke-width=".25">
  <path d="m434.52 594.62-10.564 5.141c-6.101-12.514-14.126-23.917-23.691-33.824l8.45-8.158c10.418 10.791 19.159 23.211 25.805 36.841z" fill="#0a0"/>
 </g>
 <g transform="matrix(1.1878 0 0 1.1878 -10.482 -428.51)" fill="#33f105">
  <path d="m446.775,682.441-11.567-2.048c1.313-7.462 1.997-15.14 1.997-22.977 0-6.173-.424-12.246-1.246-18.193l11.635-1.621c.894,6.476 1.356,13.091 1.356,19.813 0,8.537-.745,16.9-2.175,25.026z"/>
 </g>
 <g transform="matrix(1.1878 0 0 1.1878 -10.482 -428.51)" fill="#0a0" stroke="#fff" stroke-width=".25">
  <path d="m446.775,682.441-11.567-2.048c1.313-7.462 1.997-15.14 1.997-22.977 0-6.173-.424-12.246-1.246-18.193l11.635-1.621c.894,6.476 1.356,13.091 1.356,19.813 0,8.537-.745,16.9-2.175,25.026z" fill="#0a0"/>
 </g>
 <g transform="matrix(1.1878 0 0 1.1878 -10.482 -428.51)" fill="#33f105">
  <path d="m405.04 760.72-8.153-8.454c9.911-9.554 18.328-20.646 24.867-32.893l10.368 5.524c-7.122 13.338-16.289 25.418-27.082 35.823z"/>
 </g>
 <g transform="matrix(1.1878 0 0 1.1878 -10.482 -428.51)" fill="#0a0" stroke="#fff" stroke-width=".25">
  <path d="m405.04 760.72-8.153-8.454c9.911-9.554 18.328-20.646 24.867-32.893l10.368 5.524c-7.122 13.338-16.289 25.418-27.082 35.823z" fill="#0a0"/>
 </g>
 <g transform="matrix(1.1878 0 0 1.1878 -10.482 -428.51)" fill="#33f105">
  <path d="m363.13 775.89 5.14 10.564c-13.293 6.481-27.736 10.968-42.941 13.072l-1.625-11.634c13.96-1.932 27.221-6.052 39.426-12.002z"/>
 </g>
 <g transform="matrix(1.1878 0 0 1.1878 -10.482 -428.51)" fill="#0a0" stroke="#fff" stroke-width=".25">
  <path d="m363.13 775.89 5.14 10.564c-13.293 6.481-27.736 10.968-42.941 13.072l-1.625-11.634c13.96-1.932 27.221-6.052 39.426-12.002z" fill="#0a0"/>
 </g>
 <g transform="matrix(1.1878 0 0 1.1878 -10.482 -428.51)" fill="#33f105">
  <path d="m282.47 787.14-2.047 11.567c-15.082-2.656-29.353-7.669-42.418-14.644l5.524-10.368c11.994 6.404 25.095 11.006 38.941 13.445z"/>
 </g>
 <g transform="matrix(1.1878 0 0 1.1878 -10.482 -428.51)" fill="#0a0" stroke="#fff" stroke-width=".25">
  <path d="m282.47 787.14-2.047 11.567c-15.082-2.656-29.353-7.669-42.418-14.644l5.524-10.368c11.994 6.404 25.095 11.006 38.941 13.445z" fill="#0a0"/>
 </g>
 <g transform="matrix(1.1878 0 0 1.1878 -10.482 -428.51)" fill="#33f105">
  <path d="m176.47 720.25 10.561-5.145c6.098 12.496 14.115 23.884 23.667 33.78l-8.451 8.157c-10.404-10.778-19.135-23.182-25.777-36.792z"/>
 </g>
 <g transform="matrix(1.1878 0 0 1.1878 -10.482 -428.51)" fill="#0a0" stroke="#fff" stroke-width=".25">
  <path d="m176.47 720.25 10.561-5.145c6.098 12.496 14.115 23.884 23.667 33.78l-8.451 8.157c-10.404-10.778-19.135-23.182-25.777-36.792z" fill="#0a0"/>
 </g>
 <g transform="matrix(1.1878 0 0 1.1878 -10.482 -428.51)" fill="#33f105">
  <path d="m175.015,675.679-11.634,1.619c-.901-6.499-1.367-13.136-1.367-19.883 0-8.538.746-16.903 2.176-25.031l11.567,2.052c-1.313,7.462-1.998,15.141-1.998,22.98 0,6.197.428,12.294 1.256,18.263z"/>
 </g>
 <g transform="matrix(1.1878 0 0 1.1878 -10.482 -428.51)" fill="#0a0" stroke="#fff" stroke-width=".25">
  <path d="m175.015,675.679-11.634,1.619c-.901-6.499-1.367-13.136-1.367-19.883 0-8.538.746-16.903 2.176-25.031l11.567,2.052c-1.313,7.462-1.998,15.141-1.998,22.98 0,6.197.428,12.294 1.256,18.263z" fill="#0a0"/>
 </g>
 <g transform="matrix(1.1878 0 0 1.1878 -10.482 -428.51)" fill="#33f105">
  <path d="m205.92 554.12 8.153 8.455c-9.909 9.552-18.325 20.643-24.863 32.888l-10.367-5.524c7.12-13.336 16.286-25.415 27.077-35.819z"/>
 </g>
 <g transform="matrix(1.1878 0 0 1.1878 -10.482 -428.51)" fill="#0a0" stroke="#fff" stroke-width=".25">
  <path d="m205.92 554.12 8.153 8.455c-9.909 9.552-18.325 20.643-24.863 32.888l-10.367-5.524c7.12-13.336 16.286-25.415 27.077-35.819z" fill="#0a0"/>
 </g>
 <g transform="matrix(1.1878 0 0 1.1878 -10.482 -428.51)" fill="#33f105">
  <path d="m91.823,657.416c0,10.027.691,19.893 2.027,29.552-.673.087-4.929.673-12.69,1.753-1.415-10.233-2.146-20.684-2.146-31.306 0-13.476 1.177-26.678 3.434-39.507 8.904,1.573 13.016,2.293 12.618,2.214-2.131,12.11-3.243,24.572-3.243,37.294z"/>
 </g>
 <g transform="matrix(1.1878 0 0 1.1878 -10.482 -428.51)" fill="#0a0" stroke="#fff" stroke-width=".25">
  <path d="m91.823,657.416c0,10.027.691,19.893 2.027,29.552-.673.087-4.929.673-12.69,1.753-1.415-10.233-2.146-20.684-2.146-31.306 0-13.476 1.177-26.678 3.434-39.507 8.904,1.573 13.016,2.293 12.618,2.214-2.131,12.11-3.243,24.572-3.243,37.294z" fill="#0a0"/>
 </g>
 <g transform="matrix(1.1878 0 0 1.1878 -10.482 -428.51)" fill="#33f105">
  <path d="m113.322,750.935c9.877,20.257 22.863,38.72 38.336,54.767-.557.528-3.664,3.513-9.234,8.877-16.392-17.003-30.148-36.562-40.613-58.021 7.041-3.432 10.889-5.312 11.511-5.623z"/>
 </g>
 <g transform="matrix(1.1878 0 0 1.1878 -10.482 -428.51)" fill="#0a0" stroke="#fff" stroke-width=".25">
  <path d="m113.322,750.935c9.877,20.257 22.863,38.72 38.336,54.767-.557.528-3.664,3.513-9.234,8.877-16.392-17.003-30.148-36.562-40.613-58.021 7.041-3.432 10.889-5.312 11.511-5.623z" fill="#0a0"/>
 </g>
 <g transform="matrix(1.1878 0 0 1.1878 -10.482 -428.51)" fill="#ff212c">
  <path d="m93.85,686.968c3.134,22.65 9.818,44.165 19.472,63.967 .74-.37-3.084,1.48-11.53,5.585-10.224-20.976-17.304-43.766-20.626-67.757 9.292-1.303 13.478-1.897 12.684-1.795z"/>
 </g>
 <g transform="matrix(1.1878 0 0 1.1878 -10.482 -428.51)" fill="#d40000" stroke="#fff" stroke-width=".25">
  <path d="m93.85,686.968c3.134,22.65 9.818,44.165 19.472,63.967 .74-.37-3.084,1.48-11.53,5.585-10.224-20.976-17.304-43.766-20.626-67.757 9.292-1.303 13.478-1.897 12.684-1.795z" fill="#d40000"/>
 </g>
 <g transform="matrix(1.1878 0 0 1.1878 -10.482 -428.51)" fill="#ff212c">
  <path d="m116.884,556.92c-10.393,19.465-17.862,40.728-21.818,63.202-.37-.074-4.649-.84-12.61-2.256 4.192-23.806 12.103-46.33 23.111-66.95 8.358,4.447 12.062,6.411 11.317,6.004z"/>
 </g>
 <g transform="matrix(1.1878 0 0 1.1878 -10.482 -428.51)" fill="#d40000" stroke="#fff" stroke-width=".25">
  <path d="m116.884,556.92c-10.393,19.465-17.862,40.728-21.818,63.202-.37-.074-4.649-.84-12.61-2.256 4.192-23.806 12.103-46.33 23.111-66.95 8.358,4.447 12.062,6.411 11.317,6.004z" fill="#d40000"/>
 </g>
 <g transform="matrix(1.1878 0 0 1.1878 -10.482 -428.51)" fill="#33f105">
  <path d="m157.2 503.58c-16.069 15.493-29.717 33.48-40.321 53.338-0.629-0.344-4.436-2.381-11.297-6.042 11.233-21.032 25.688-40.084 42.707-56.496 6.041 6.26 8.988 9.357 8.911 9.2z"/>
 </g>
 <g transform="matrix(1.1878 0 0 1.1878 -10.482 -428.51)" fill="#0a0" stroke="#fff" stroke-width=".25">
  <path d="m157.2 503.58c-16.069 15.493-29.717 33.48-40.321 53.338-0.629-0.344-4.436-2.381-11.297-6.042 11.233-21.032 25.688-40.084 42.707-56.496 6.041 6.26 8.988 9.357 8.911 9.2z" fill="#0a0"/>
 </g>
 <g transform="matrix(1.1878 0 0 1.1878 -10.482 -428.51)" fill="#ff212c">
  <path d="m157.2 503.58c-0.183-0.149-3.143-3.271-8.881-9.23 17.003-16.39 36.562-30.147 58.022-40.611 4.092 8.397 5.951 12.197 5.627 11.51-20.257 9.875-38.72 22.859-54.768 38.331z"/>
 </g>
 <g transform="matrix(1.1878 0 0 1.1878 -10.482 -428.51)" fill="#d40000" stroke="#fff" stroke-width=".25">
  <path d="m157.2 503.58c-0.183-0.149-3.143-3.271-8.881-9.23 17.003-16.39 36.562-30.147 58.022-40.611 4.092 8.397 5.951 12.197 5.627 11.51-20.257 9.875-38.72 22.859-54.768 38.331z" fill="#d40000"/>
 </g>
 <g transform="matrix(1.1878 0 0 1.1878 -10.482 -428.51)" fill="#ff212c">
  <path d="m305.48 443.76c-10.021 0-19.881 0.69-29.535 2.025l-1.775-12.687c10.234-1.415 20.687-2.147 31.31-2.147 13.474 0 26.673 1.177 39.5 3.433l-2.236 12.603c-12.098-2.13-24.554-3.227-37.264-3.227z"/>
 </g>
 <g transform="matrix(1.1878 0 0 1.1878 -10.482 -428.51)" fill="#d40000" stroke="#fff" stroke-width=".25">
  <path d="m305.48 443.76c-10.021 0-19.881 0.69-29.535 2.025l-1.775-12.687c10.234-1.415 20.687-2.147 31.31-2.147 13.474 0 26.673 1.177 39.5 3.433l-2.236 12.603c-12.098-2.13-24.554-3.227-37.264-3.227z" fill="#d40000"/>
 </g>
 <g transform="matrix(1.1878 0 0 1.1878 -10.482 -428.51)" fill="#33f105">
  <path d="m206.38 453.72c20.972-10.221 43.757-17.3 67.743-20.622l1.77 12.687c-22.634 3.135-44.135 9.817-63.924 19.464-0.277-0.587-2.151-4.453-5.589-11.529z"/>
 </g>
 <g transform="matrix(1.1878 0 0 1.1878 -10.482 -428.51)" fill="none" stroke="#fff" stroke-width=".25">
  <path d="m206.38 453.72c20.972-10.221 43.757-17.3 67.743-20.622l1.77 12.687c-22.634 3.135-44.135 9.817-63.924 19.464-0.277-0.587-2.151-4.453-5.589-11.529z" fill="#0a0"/>
 </g>
 <g transform="matrix(1.1878 0 0 1.1878 -10.482 -428.51)" fill="#33f105">
  <path d="m405.94 468.82c-19.453-10.383-40.691-17.866-63.145-21.825l2.231-12.604c23.805 4.192 46.327 12.102 66.948 23.108l-6.034 11.321z"/>
 </g>
 <g transform="matrix(1.1878 0 0 1.1878 -10.482 -428.51)" fill="#0a0" stroke="#fff" stroke-width=".25">
  <path d="m405.94 468.82c-19.453-10.383-40.691-17.866-63.145-21.825l2.231-12.604c23.805 4.192 46.327 12.102 66.948 23.108l-6.034 11.321z" fill="#0a0"/>
 </g>
 <g transform="matrix(1.1878 0 0 1.1878 -10.482 -428.51)" fill="#ff212c">
  <path d="m459.29 509.11c-15.482-16.052-33.462-29.673-53.302-40.269l6.03-11.322c21.032 11.232 40.084 25.686 56.495 42.703l-9.223 8.888z"/>
 </g>
 <g transform="matrix(1.1878 0 0 1.1878 -10.482 -428.51)" fill="#d40000" stroke="#fff" stroke-width=".25">
  <path d="m459.29 509.11c-15.482-16.052-33.462-29.673-53.302-40.269l6.03-11.322c21.032 11.232 40.084 25.686 56.495 42.703l-9.223 8.888z" fill="#d40000"/>
 </g>
 <g transform="matrix(1.1878 0 0 1.1878 -10.482 -428.51)" fill="#33f105">
  <path d="m519.038,657.278c0-10.027-.691-19.893-2.027-29.552 .674-.087 4.929-.674 12.69-1.753 1.415,10.233 2.146,20.684 2.146,31.305 0,13.477-1.177,26.678-3.434,39.508-8.904-1.573-13.016-2.293-12.618-2.214 2.132-12.111 3.243-24.572 3.243-37.294z"/>
 </g>
 <g transform="matrix(1.1878 0 0 1.1878 -10.482 -428.51)" fill="#0a0" stroke="#fff" stroke-width=".25">
  <path d="m519.038,657.278c0-10.027-.691-19.893-2.027-29.552 .674-.087 4.929-.674 12.69-1.753 1.415,10.233 2.146,20.684 2.146,31.305 0,13.477-1.177,26.678-3.434,39.508-8.904-1.573-13.016-2.293-12.618-2.214 2.132-12.111 3.243-24.572 3.243-37.294z" fill="#0a0"/>
 </g>
 <g transform="matrix(1.1878 0 0 1.1878 -10.482 -428.51)" fill="#33f105">
  <path d="m497.54 563.76c-9.877-20.257-22.863-38.72-38.336-54.768 0.557-0.527 3.665-3.512 9.235-8.876 16.391 17.002 30.148 36.562 40.613 58.021-7.042 3.431-10.89 5.312-11.512 5.623z"/>
 </g>
 <g transform="matrix(1.1878 0 0 1.1878 -10.482 -428.51)" fill="#0a0" stroke="#fff" stroke-width=".25">
  <path d="m497.54 563.76c-9.877-20.257-22.863-38.72-38.336-54.768 0.557-0.527 3.665-3.512 9.235-8.876 16.391 17.002 30.148 36.562 40.613 58.021-7.042 3.431-10.89 5.312-11.512 5.623z" fill="#0a0"/>
 </g>
 <g transform="matrix(1.1878 0 0 1.1878 -10.482 -428.51)" fill="#ff212c">
  <path d="m517.011,627.726c-3.134-22.65-9.818-44.166-19.472-63.967-.74.37 3.085-1.481 11.53-5.585 10.225,20.976 17.305,43.766 20.626,67.757-9.292,1.303-13.478,1.897-12.684,1.795z"/>
 </g>
 <g transform="matrix(1.1878 0 0 1.1878 -10.482 -428.51)" fill="#d40000" stroke="#fff" stroke-width=".25">
  <path d="m517.011,627.726c-3.134-22.65-9.818-44.166-19.472-63.967-.74.37 3.085-1.481 11.53-5.585 10.225,20.976 17.305,43.766 20.626,67.757-9.292,1.303-13.478,1.897-12.684,1.795z" fill="#d40000"/>
 </g>
 <g transform="matrix(1.1878 0 0 1.1878 -10.482 -428.51)" fill="#ff212c">
  <path d="m493.977,757.774c10.394-19.465 17.862-40.728 21.818-63.202 .37.073 4.65.84 12.611,2.255-4.193,23.806-12.104,46.33-23.112,66.951-8.357-4.448-12.061-6.411-11.317-6.004z"/>
 </g>
 <g transform="matrix(1.1878 0 0 1.1878 -10.482 -428.51)" fill="#d40000" stroke="#fff" stroke-width=".25">
  <path d="m493.977,757.774c10.394-19.465 17.862-40.728 21.818-63.202 .37.073 4.65.84 12.611,2.255-4.193,23.806-12.104,46.33-23.112,66.951-8.357-4.448-12.061-6.411-11.317-6.004z" fill="#d40000"/>
 </g>
 <g transform="matrix(1.1878 0 0 1.1878 -10.482 -428.51)" fill="#33f105">
  <path d="m453.656,811.112c16.069-15.493 29.717-33.48 40.321-53.338 .629.344 4.436,2.381 11.297,6.042-11.233,21.032-25.688,40.084-42.706,56.496-6.042-6.26-8.989-9.357-8.912-9.2z"/>
 </g>
 <g transform="matrix(1.1878 0 0 1.1878 -10.482 -428.51)" fill="#0a0" stroke="#fff" stroke-width=".25">
  <path d="m453.656,811.112c16.069-15.493 29.717-33.48 40.321-53.338 .629.344 4.436,2.381 11.297,6.042-11.233,21.032-25.688,40.084-42.706,56.496-6.042-6.26-8.989-9.357-8.912-9.2z" fill="#0a0"/>
 </g>
 <g transform="matrix(1.1878 0 0 1.1878 -10.482 -428.51)" fill="#ff212c">
  <path d="m453.656,811.112c.183.149 3.144,3.271 8.881,9.229-17.003,16.391-36.562,30.147-58.022,40.612-4.091-8.397-5.951-12.197-5.626-11.51 20.256-9.876 38.719-22.86 54.767-38.331z"/>
 </g>
 <g transform="matrix(1.1878 0 0 1.1878 -10.482 -428.51)" fill="#d40000" stroke="#fff" stroke-width=".25">
  <path d="m453.656,811.112c.183.149 3.144,3.271 8.881,9.229-17.003,16.391-36.562,30.147-58.022,40.612-4.091-8.397-5.951-12.197-5.626-11.51 20.256-9.876 38.719-22.86 54.767-38.331z" fill="#d40000"/>
 </g>
 <g transform="matrix(1.1878 0 0 1.1878 -10.482 -428.51)" fill="#ff212c">
  <path d="m305.38 870.94c10.021 0 19.882-0.69 29.536-2.025l1.774 12.687c-10.234 1.415-20.687 2.146-31.31 2.146-13.474 0-26.673-1.176-39.5-3.432l2.236-12.604c12.098 2.131 24.554 3.228 37.264 3.228z"/>
 </g>
 <g transform="matrix(1.1878 0 0 1.1878 -10.482 -428.51)" fill="#d40000" stroke="#fff" stroke-width=".25">
  <path d="m305.38 870.94c10.021 0 19.882-0.69 29.536-2.025l1.774 12.687c-10.234 1.415-20.687 2.146-31.31 2.146-13.474 0-26.673-1.176-39.5-3.432l2.236-12.604c12.098 2.131 24.554 3.228 37.264 3.228z" fill="#d40000"/>
 </g>
 <g transform="matrix(1.1878 0 0 1.1878 -10.482 -428.51)" fill="#33f105">
  <path d="m404.477,860.971c-20.972,10.222-43.757,17.301-67.743,20.622l-1.77-12.686c22.635-3.135 44.135-9.817 63.925-19.464 .277.587 2.15,4.453 5.588,11.528z"/>
 </g>
 <g transform="matrix(1.1878 0 0 1.1878 -10.482 -428.51)" fill="#0a0" stroke="#fff" stroke-width=".25">
  <path d="m404.477,860.971c-20.972,10.222-43.757,17.301-67.743,20.622l-1.77-12.686c22.635-3.135 44.135-9.817 63.925-19.464 .277.587 2.15,4.453 5.588,11.528z" fill="#0a0"/>
 </g>
 <g transform="matrix(1.1878 0 0 1.1878 -10.482 -428.51)" fill="#33f105">
  <path d="m204.92 845.88c19.454 10.383 40.691 17.866 63.146 21.825l-2.232 12.604c-23.804-4.192-46.327-12.102-66.947-23.109l6.033-11.32z"/>
 </g>
 <g transform="matrix(1.1878 0 0 1.1878 -10.482 -428.51)" fill="#0a0" stroke="#fff" stroke-width=".25">
  <path d="m204.92 845.88c19.454 10.383 40.691 17.866 63.146 21.825l-2.232 12.604c-23.804-4.192-46.327-12.102-66.947-23.109l6.033-11.32z" fill="#0a0"/>
 </g>
 <g transform="matrix(1.1878 0 0 1.1878 -10.482 -428.51)" fill="#ff212c">
  <path d="m151.57 805.58c15.482 16.052 33.462 29.672 53.302 40.268l-6.03 11.323c-21.032-11.232-40.083-25.686-56.495-42.703l9.223-8.888z"/>
 </g>
 <g transform="matrix(1.1878 0 0 1.1878 -10.482 -428.51)" fill="#d40000" stroke="#fff" stroke-width=".25">
  <path d="m151.57 805.58c15.482 16.052 33.462 29.672 53.302 40.268l-6.03 11.323c-21.032-11.232-40.083-25.686-56.495-42.703l9.223-8.888z" fill="#d40000"/>
 </g>
 <g transform="matrix(1.1878 0 0 1.1878 -10.482 -428.51)" fill="none" stroke="#fff" stroke-width=".25">
  <path d="m13.973 657.42c0-161 130.51-291.51 291.51-291.51s291.51 130.51 291.51 291.51-130.51 291.51-291.51 291.51-291.51-130.51-291.51-291.51z"/>
 </g>
</svg>
