<?xml version="1.0" encoding="UTF-8"?>
<svg viewBox="0 0 297.57367 402" xmlns="http://www.w3.org/2000/svg">
 <defs>
  <filter id="o">
   <feGaussianBlur stdDeviation=".6451"/>
  </filter>
  <filter id="n">
   <feGaussianBlur stdDeviation=".9135"/>
  </filter>
  <filter id="l">
   <feGaussianBlur stdDeviation=".8063"/>
  </filter>
  <filter id="j">
   <feGaussianBlur stdDeviation="1.5246"/>
  </filter>
  <filter id="c">
   <feGaussianBlur stdDeviation=".4361"/>
  </filter>
  <filter id="h">
   <feGaussianBlur stdDeviation=".6949"/>
  </filter>
  <filter id="e">
   <feGaussianBlur stdDeviation="1.32"/>
  </filter>
  <filter id="m" x="-.29339" y="-.12982" width="1.5868" height="1.2596">
   <feGaussianBlur stdDeviation="1.3872"/>
  </filter>
  <filter id="k" x="-.14104" y="-.11386" width="1.2821" height="1.2277">
   <feGaussianBlur stdDeviation="1.0556"/>
  </filter>
  <filter id="i" x="-.16993" y="-.0669" width="1.3398" height="1.1338">
   <feGaussianBlur stdDeviation=".4932"/>
  </filter>
  <filter id="g" x="-.25859" y="-.21478" width="1.5172" height="1.4296">
   <feGaussianBlur stdDeviation=".5242"/>
  </filter>
  <filter id="b" x="-.21414" y="-.26839" width="1.4283" height="1.5368">
   <feGaussianBlur stdDeviation=".5242"/>
  </filter>
  <filter id="a" x="-.18078" y="-.21976" width="1.3616" height="1.4395">
   <feGaussianBlur stdDeviation=".5242"/>
  </filter>
  <filter id="f" x="-.16623" y="-.18056" width="1.3325" height="1.3611">
   <feGaussianBlur stdDeviation=".5242"/>
  </filter>
  <filter id="d" x="-.15733" y="-.08222" width="1.3146" height="1.1644">
   <feGaussianBlur stdDeviation=".8476"/>
  </filter>
 </defs>
 <g transform="matrix(2.5351 0 0 2.5351 -1.5351 -1.5351)">
  <path d="m106.14 156.57c0.11216-11.208 2.5792-26.781-5.9476-35.465-8.0236-8.1715-36.153-9.3744-30.619-22.248 3.9132-9.1037 5.6241-19.675 15.53-19.935 5.6667-0.14913 10.26 0.72009 19.495 10.353 15.494 16.161 11.028 49.473 10.794 67.296-2.7408 0-6.478 0.0394-9.2518 0z" fill="#ffd495"/>
  <path d="m106.14 156.57c2.0124-10.448 3.9902-29.477-5.507-38.549-8.2811-7.9104-36.593-6.2905-31.06-19.164 3.9132-9.1037 1.6591-17.252 11.565-17.512 5.6667-0.14913 6.2947 0.27953 15.53 9.9126 15.494 16.161 18.958 47.491 18.724 65.313-2.7408 0-6.478 0.0394-9.2518 0z" fill="#fec06c" filter="url(#n)"/>
  <path d="m41.813 33.825c-6.5482 3.7606-13.095 5.9014-18.302 11.371-4.3257 4.5438-5.9985 10.07-9.7351 15.109-6.9308 9.3472-12.586 24.131-12.772 37.383-0.17709 12.581 6.6914 27.584 13.396 38.162 8.9432 14.11 23.57 22.277 40.265 22.897 13.505 0.50187 29.376-5.7765 36.059-17.523 2.6501-4.6584 3.5124-15.564 2.5701-23.364-0.92274-7.6386-7.259-13.73-6.9314-21.417 0.3598-8.4444 2.979-12.386 11.215-22.741 2.0866-2.6234 1.609-6.0203 0.77881-9.2678-6.6091-25.856-29.07-46.384-56.542-30.607z" fill="#6d1f39"/>
  <path transform="matrix(.95763 0 0 .95763 117.27 1.5302)" d="m-70.11 31.795c-7.5492 0.17515-19.372 11.07-24.578 16.539-4.3257 4.5438-5.9985 10.07-9.7351 15.109-6.9308 9.3472-12.586 24.131-12.772 37.383-0.17709 12.581 6.6914 27.584 13.396 38.162 8.9432 14.11 14.224 10.439 30.919 11.059 13.505 0.50187 29.376-5.7765 36.059-17.523 2.6501-4.6584 11.658-19.717 5.0623-23.987-2.4378-1.5784-21.292 6.1692-19.824-6.0794 0.44274-3.6943 7.4265-9.0452 7.26-12.489-0.21166-4.3797 10.991-10.448 15.601-16.244 2.0866-2.6234 3.5374-10.232 2.2556-13.329-8.4774-20.484-21.479-29.114-43.643-28.6z" fill="#812443" filter="url(#j)"/>
  <path d="m4.8944 102.49s-0.21158-11.805 3.7846-24.407c2.1019-6.6281 7.2016-13.018 10.134-19.02 1.7412-3.5637 6.1871-10.213 8.2639-12.664 8.2518-9.7373 33.274-17.429 33.274-17.429 1.0449 1.0449-20.698 13.632-26.936 21.232-3.5612 4.3391-2.822 10.711-5.7041 15.528-3.6483 6.0976-10.313 8.9854-14.26 14.894-4.2254 6.3255-8.5562 21.866-8.5562 21.866z" fill="#a24c67" filter="url(#l)"/>
  <path transform="matrix(1.183 0 0 1.183 123.98 -22.814)" d="m-36.823 101.15c3.7354-2.4661 3.4691-8.2791-0.71429-9.8711-5.9709-2.2722-13.168 6.3914-13.927 12.735-0.46578 3.8908 2.5762 7.2323 6.2305 8.6471 3.0962 1.1987 8.9778 0.10469 11.215-1.8692 3.3842-2.986-12.629-0.78581-12.461-5.2959 0.19985-5.3703 7.739-3.0792 9.6573-4.3457z" fill="#a24c67" filter="url(#k)"/>
  <path d="m19.52 57.418c1.7412-3.5637 6.1871-10.213 8.2639-12.664 8.2518-9.7373 33.274-17.429 33.274-17.429 1.0449 1.0449-24.443 9.0059-30.681 16.606-3.5612 4.3391-2.4658 2.572-5.7041 7.1572-0.53656 0.75974-2.1306 4.2681-3.7443 6.6696-3.2721 4.8694-6.6254 8.6148-1.4086-0.33984z" fill="#ffc4da" filter="url(#o)"/>
  <path d="m91.563 88.728c-2.6942 2.3298-2.2878 7.0907-1.542 10.573 1.2028 5.6169 3.6165 15.652 9.2518 14.539 2.0489-0.4047 1.6425-4.1507 1.1014-6.1679-0.7965-2.9693-4.8655-4.1714-5.9476-7.049-1.3959-3.712 2.6098-9.1171-0.22028-11.895-0.62879-0.61725-1.9769-0.57634-2.6434 0z" fill="#f3b65b" filter="url(#m)"/>
  <path d="m42.941 34.538c-2.852-0.76117 1.9655-6.6066 4.0252-8.7212 2.3028-2.3641 5.0526-2.7029 7.5472-4.8637 2.0979-1.8173 3.0153-3.9892 5.1992-5.7023 2.6307-2.0637 6.2009-2.8752 8.8889-4.8637 2.2114-1.636 3.5513-3.887 5.87-5.3669 4.2987-2.7436 10.196-5.2592 14.927-3.3543 3.6676 1.477 4.6259 5.342 6.3732 8.8889 2.4298 4.9323 4.8684 10.122 5.3669 15.597 0.27169 2.9842-1.4535 5.8944-1.3417 8.8889 0.19674 5.2719 3.6861 10.157 3.522 15.43-0.17217 5.5342-1.4914 15.148-4.696 15.933-1.9514 0.4782-3.0415-5.1897-5.7023-7.5472-2.4489-2.1697-5.5582-3.903-7.8826-6.2054-2.8641-2.8371-3.9049-6.3413-7.3794-8.3857-3.5772-2.1048-8.3383-1.9474-12.243-3.3543-4.494-1.6192-7.1435-6.1937-11.908-7.2117-8.487-1.8136-8.7908 1.3124-10.566 0.83857z" fill="#f6b176"/>
  <path d="m47.441 31.288c-2.852-0.76117-0.0345-2.3566 2.0252-4.4712 2.3028-2.3641 5.5526 0.04712 8.0472-2.1137 2.0979-1.8173 2.2653-4.9892 4.4492-6.7023 2.6307-2.0637 3.9509 0.12481 6.6389-1.8637 2.2114-1.636 4.3013-3.387 6.62-4.8669 4.2987-2.7436 5.1961-5.5092 9.9266-3.6043 3.6676 1.477 4.6259 1.842 6.3732 5.3889 2.4298 4.9323 4.8684 10.122 5.3669 15.597 0.27169 2.9842-1.4535 5.8944-1.3417 8.8889 0.19674 5.2719 3.6861 10.157 3.522 15.43-0.17217 5.5342 2.0086 5.3976-1.196 6.1829-1.9514 0.4782-1.5415-1.1897-4.2023-3.5472-2.4489-2.1697-5.5582-3.903-7.8826-6.2054-2.8641-2.8371-3.9049-6.3413-7.3794-8.3857-3.5772-2.1048-8.3383-1.9474-12.243-3.3543-4.494-1.6192-4.1435-4.6937-8.9077-5.7117-8.487-1.8135-8.0408-0.18765-9.816-0.66143z" fill="#fcb678" filter="url(#e)"/>
  <path d="m97.169 54.028c0.18239 0.66876-0.48779-1.4668-1.9431-6.0707-0.65723-2.0792-2.5739-4.5211-3.6573-7.6809-0.67492-1.9685 0.43339-5.1678-0.59938-7.4616-0.52336-1.1624-1.3277-1.2276-1.591-2.4749-0.31736-1.5035 0.67842-2.0127 0.88388-3.5355 0.46864-3.4734-2.0614-6.6997-3.0922-10.05-0.38349-1.2464-0.62015-2.6784-0.62015-2.6784-1.6722-5.4348 5.2919-7.3317 6.023-4.773 0 0 1.4992 2.8202 2.1213 4.4194 0.95533 2.456 3.177 8.0263 3.7123 10.607 0.69956 3.3717-0.42128 4.5897-0.76716 7.267-0.30615 2.3697-0.20559 4.4211 0.41361 7.4055 0.37475 1.8062 1.4154 4.3509 1.591 6.1872 0.2912 3.0457-2.4749 8.8388-2.4749 8.8388z" fill="#fde6d3" filter="url(#c)"/>
  <path d="m56.631 29.695 1.5617-4.2047 4.2047-1.3215-4.505 0.42047-3.0634-1.8621 2.2826 2.643z" fill="#c27a4a" filter="url(#f)"/>
  <path d="m64.787 18.958 3.3759-1.9961 3.5836 1.4175-3.2915-2.1949-1.0555-2.9515 0.09518 3.0519z" fill="#c27a4a" filter="url(#a)"/>
  <path d="m45.368 29.986c0 0.21066 1.5181-2.461 3.9358-4.2939 1.4178-1.0748 3.5537-2.226 5.0798-3.1308 3.2995-1.9562 3.872-2.2433 4.9498-4.5962 1.7351-3.7882 12.551-7.7782 12.551-7.7782s-5.7674 4.4132-7.7782 6.5407c-1.619 1.713-2.3244 3.5381-4.0659 5.1265-1.3291 1.2123-3.0597 1.6506-4.4194 2.8284-1.3914 1.2053-2.2591 0.9122-3.8891 1.7678-1.1526 0.60498-1.545 2.2574-2.8284 2.4749-0.95817 0.16233-3.5355 1.0607-3.5355 1.0607z" fill="#ffeac2" filter="url(#h)"/>
  <path d="m98.182 54.028c0.18239 0.66876-0.48779-1.4668-1.9431-6.0707-0.65723-2.0792-2.5739-4.5211-3.6573-7.6809-0.67492-1.9685 0.43339-5.1678-0.59938-7.4616-0.52336-1.1624-1.3277-1.2276-1.591-2.4749-0.31736-1.5035 0.67842-2.0127 0.88388-3.5355 0.46864-3.4734-2.0614-6.6997-3.0922-10.05-0.38349-1.2464-0.62015-2.6784-0.62015-2.6784-1.6722-5.4348 5.2919-7.3317 6.023-4.773 0 0 1.4992 2.8202 2.1213 4.4194 0.95533 2.456 3.177 8.0263 3.7123 10.607 0.69956 3.3717-0.42128 4.5897-0.76716 7.267-0.30615 2.3697-0.20559 4.4211 0.41361 7.4055 0.37475 1.8062 1.4154 4.3509 1.591 6.1872 0.2912 3.0457-2.4749 8.8388-2.4749 8.8388z" fill="#ee9249" filter="url(#c)" stroke="#ad886d" stroke-width=".2"/>
  <path transform="matrix(1.0642 0 0 1.0642 119.37 -5.415)" d="m-25.625 15.125c-0.45271-0.49818-2.387 0.06297-1.875 0.5 4.4259 3.7779 6.0434 12.708 6.25 17 1.125-4.625 0.52984-6.2021-0.125-8.875-0.92838-3.7895-1.4387-5.5314-4.25-8.625z" fill="#fe9247" filter="url(#i)"/>
  <path d="m71.7 36.111 3-1.375 2.875 1.5-2.5625-2.125-0.625-2.5625-0.1875 2.5625z" fill="#c27a4a" filter="url(#b)"/>
  <path d="m76.787 10.958 3.3759-1.9961 3.5836 1.4175-3.2915-2.1949-1.0555-2.9515 0.09518 3.0519z" fill="#c27a4a" filter="url(#a)"/>
  <path d="m82.932 46.209-1.1979-3.075 1.665-2.7827-2.2707 2.4343-2.5946 0.47463 2.5472 0.33649z" fill="#c27a4a" filter="url(#g)"/>
  <path d="m88.899 95.268c-0.56928 0.39926-0.57229 1.3396-0.82653 1.9868-1.0776 2.7431 2.8091 6.6679 2.8091 6.6679 1.9986 4.0225 11.201 19.79 9.7851 12.376l-0.62202-3.256c-8.6448-7.69-6.1557-7.6132-7.6218-13.018-1.5433-2.1566 0.60742-6.1774-2.0238-6.5076-0.76238-0.09568-0.87095 1.3091-1.5 1.7503z" fill="#efb144" filter="url(#d)"/>
  <path d="m84.516 31.869 3-1.375 2.875 1.5-2.5625-2.125c-2.6113 0.89345-0.32596-0.38923-3.3125 2z" fill="#c27a4a" filter="url(#b)"/>
 </g>
</svg>
